<?xml version="1.0" encoding="UTF-8" standalone="no"?>
<!-- Created with Inkscape (http://www.inkscape.org/) -->

<svg
   width="210mm"
   height="210mm"
   viewBox="0 0 210 210"
   version="1.1"
   id="svg5"
   sodipodi:docname="logo.svg"
   inkscape:version="1.1.2 (0a00cf5339, 2022-02-04, custom)"
   xmlns:inkscape="http://www.inkscape.org/namespaces/inkscape"
   xmlns:sodipodi="http://sodipodi.sourceforge.net/DTD/sodipodi-0.dtd"
   xmlns:xlink="http://www.w3.org/1999/xlink"
   xmlns="http://www.w3.org/2000/svg"
   xmlns:svg="http://www.w3.org/2000/svg">
  <sodipodi:namedview
     id="namedview14"
     pagecolor="#505050"
     bordercolor="#eeeeee"
     borderopacity="1"
     inkscape:pageshadow="0"
     inkscape:pageopacity="0"
     inkscape:pagecheckerboard="0"
     inkscape:document-units="mm"
     showgrid="false"
     inkscape:zoom="0.16788443"
     inkscape:cx="-339.51929"
     inkscape:cy="997.71018"
     inkscape:window-width="1366"
     inkscape:window-height="721"
     inkscape:window-x="0"
     inkscape:window-y="19"
     inkscape:window-maximized="1"
     inkscape:current-layer="svg5"
     inkscape:snap-bbox="true" />
  <defs
     id="defs2">
    <linearGradient
       id="linearGradient9271">
      <stop
         style="stop-color:#ffc934;stop-opacity:1"
         offset="0"
         id="stop9267" />
      <stop
         style="stop-color:#ffbc42;stop-opacity:1;"
         offset="0.46647549"
         id="stop23565" />
      <stop
         style="stop-color:#ffaf53;stop-opacity:1"
         offset="1"
         id="stop9269" />
    </linearGradient>
    <linearGradient
       xlink:href="#linearGradient9271"
       id="linearGradient9273"
       x1="2473.3528"
       y1="87.930016"
       x2="2472.5884"
       y2="511.9668"
       gradientUnits="userSpaceOnUse"
       gradientTransform="matrix(0.26458333,0,0,0.26458333,-548.18673,26.679971)" />
  </defs>
  <path
     id="rect8109"
     style="fill:url(#linearGradient9273);fill-opacity:1;stroke:none;stroke-width:1.54654"
     d="m 59.203062,48.415595 c -2.084626,0 -3.76256,1.997871 -3.76256,4.479313 V 157.10509 c 0,2.48144 1.677934,4.47932 3.76256,4.47932 2.084652,0 3.763063,-1.99788 3.763063,-4.47932 V 52.894908 c 0,-2.481443 -1.678411,-4.479314 -3.763063,-4.479313 z m 91.593378,0 c -2.08463,0 -3.76256,1.997871 -3.76256,4.479313 V 157.10509 c 0,2.48144 1.67793,4.47932 3.76256,4.47932 2.08465,0 3.76306,-1.99788 3.76306,-4.47932 V 52.894908 c 0,-2.481443 -1.67841,-4.479314 -3.76306,-4.479313 z m -106.858593,8.80618 c -2.084625,0 -3.763089,2.043951 -3.763089,4.582667 v 86.391118 c 0,2.53871 1.678464,4.58267 3.763089,4.58267 2.084652,0 3.76256,-2.04396 3.76256,-4.58267 V 61.804442 c 0,-2.538716 -1.677908,-4.582667 -3.76256,-4.582667 z m 30.530959,0 c -2.084652,0 -3.76309,1.946978 -3.76309,4.365109 v 86.826236 c 2.7e-5,2.41813 1.678438,4.36511 3.76309,4.36511 2.084652,0 3.76256,-1.94698 3.76256,-4.36511 V 61.586884 c 0,-2.41813 -1.677908,-4.365109 -3.76256,-4.365109 z m 61.062414,0 c -2.08465,0 -3.76309,2.043951 -3.76309,4.582667 v 86.391118 c 0,2.53871 1.67844,4.58267 3.76309,4.58267 2.08466,0 3.76256,-2.04396 3.76256,-4.58267 V 61.804442 c 0,-2.538716 -1.6779,-4.582667 -3.76256,-4.582667 z m 30.53094,0 c -2.08466,0 -3.76307,1.946978 -3.76307,4.365109 v 86.826236 c 3e-5,2.41813 1.67841,4.36511 3.76307,4.36511 2.08467,0 3.76256,-1.94698 3.76256,-4.36511 V 61.586884 c 0,-2.41813 -1.67789,-4.365109 -3.76256,-4.365109 z m -137.390057,8.64495 c -2.084652,0 -3.763089,1.879175 -3.763089,4.21318 V 139.9201 c 0,2.33401 1.678437,4.21266 3.763089,4.21266 2.084626,0 3.76309,-1.87865 3.76309,-4.21266 V 70.079905 c 0,-2.334005 -1.678464,-4.21318 -3.76309,-4.21318 z m 61.061917,0 c -2.084652,0 -3.76256,2.053521 -3.76256,4.603854 v 69.058841 c 0,2.55033 1.677908,4.60334 3.76256,4.60334 2.084652,0 3.763063,-2.05301 3.763063,-4.60334 V 70.470579 c 0,-2.550332 -1.678411,-4.603854 -3.763063,-4.603854 z m 30.53146,0 c -2.08465,0 -3.76309,1.879175 -3.76309,4.21318 V 139.9201 c 0,2.33401 1.67844,4.21266 3.76309,4.21266 2.08463,0 3.76309,-1.87865 3.76306,-4.21266 V 70.079905 c 0,-2.334005 -1.67843,-4.21318 -3.76306,-4.21318 z m 61.06192,0 c -2.08466,0 -3.76259,2.053521 -3.76259,4.603854 v 69.058841 c 0,2.55033 1.67793,4.60334 3.76259,4.60334 2.08462,0 3.76306,-2.05301 3.76306,-4.60334 V 70.470579 c 0,-2.550332 -1.67844,-4.603854 -3.76306,-4.603854 z M 13.40636,74.725099 c -2.084653,0 -3.7625601,2.037044 -3.7625601,4.567164 v 51.415477 c 0,2.53012 1.6779071,4.56716 3.7625601,4.56716 2.084678,0 3.763089,-2.03704 3.763089,-4.56716 V 79.292263 c 0,-2.53012 -1.678411,-4.567164 -3.763089,-4.567164 z m 91.59338,0 c -0.91189,0 -1.74628,0.389899 -2.39623,1.040247 -0.093,0.09301 -0.18206,0.191265 -0.26717,0.294556 -0.085,0.10319 -0.16579,0.211314 -0.24236,0.324011 -0.536,0.788879 -0.85731,1.801424 -0.85731,2.90835 v 51.415477 c 0,1.10692 0.32131,2.11947 0.85731,2.90835 0.0766,0.11269 0.15734,0.22082 0.24236,0.32401 0.0851,0.10329 0.17422,0.20154 0.26717,0.29455 0.64995,0.65035 1.48434,1.04025 2.39623,1.04025 2.08462,0 3.76309,-2.03704 3.76309,-4.56716 V 79.292263 c 0,-2.53012 -1.67847,-4.567164 -3.76309,-4.567164 z m 91.59337,0 c -2.08465,0 -3.76306,2.037044 -3.76306,4.567164 v 51.415477 c 0,2.53012 1.67841,4.56716 3.76306,4.56716 2.08463,0 3.76309,-2.03704 3.76309,-4.56716 V 79.292263 c 0,-2.53012 -1.67846,-4.567164 -3.76309,-4.567164 z"
     inkscape:export-filename="/home/adriano/Documentos/zumbeedo/assets/rect8109.png"
     inkscape:export-xdpi="200"
     inkscape:export-ydpi="200" />
  <g
     aria-label="ZumBeedo"
     id="text2211"
     style="font-size:38.6997px;stroke-width:0.201561"
     transform="translate(211.5282,-55.70152)" />
</svg>
