<svg xmlns="http://www.w3.org/2000/svg" width="23.418" height="24" viewBox="0 0 23.418 24"><defs><style>.a{fill:#6b5a56;}</style></defs><path class="a" d="M25.215,10.727a.69.69,0,0,1-.69.69H11.243a.69.69,0,1,1,0-1.38H24.525a.69.69,0,0,1,.69.69Zm0,4.007a.69.69,0,0,0-.69-.69H11.243a.69.69,0,1,0,0,1.38H24.525a.69.69,0,0,0,.69-.69Zm-8.429,4.012a.69.69,0,0,0-.69-.69H11.238a.69.69,0,1,0,0,1.38H16.1a.69.69,0,0,0,.69-.69Zm-5.548,3.308a.69.69,0,1,0,0,1.38h3.579a.69.69,0,1,0,0-1.38Zm18.73,1.6a6.248,6.248,0,0,1-10.862,4.223H9.08a2.535,2.535,0,0,1-2.53-2.53V8.44A2.535,2.535,0,0,1,9.08,5.91h17.6a2.53,2.53,0,0,1,2.53,2.53v8.741a.69.69,0,1,1-1.38,0V8.44a1.15,1.15,0,0,0-1.15-1.15H9.08A1.155,1.155,0,0,0,7.93,8.44V25.353A1.155,1.155,0,0,0,9.08,26.5h9.063a6.165,6.165,0,0,1-.69-2.843,6.257,6.257,0,1,1,12.514,0Zm-1.38,0a4.872,4.872,0,1,0,0,.009Zm-4.877-3.759a.69.69,0,0,0-.69.69v2.392H21.134a.69.69,0,1,0,0,1.38h2.576a.69.69,0,0,0,.69-.69.805.805,0,0,0,0-.152.856.856,0,0,0,0-.156V20.6a.69.69,0,0,0-.69-.695Z" transform="translate(-6.55 -5.91)"/></svg>