<svg xmlns="http://www.w3.org/2000/svg" width="24" height="24" viewBox="0 0 24 24"><defs><style>.a{fill:#6b5a56;}</style></defs><path class="a" d="M20.3,26.76a.96.96,0,0,1,0,.39.83.83,0,0,1-.055.19,1.4,1.4,0,0,1-.09.17,1.24,1.24,0,0,1-.125.15,1,1,0,0,1-1.09.22.96.96,0,0,1-.325-.22.71.71,0,0,1-.11-.16.965.965,0,0,1-.095-.17,1.19,1.19,0,0,1-.055-.19.96.96,0,0,1,0-.39,1.19,1.19,0,0,1,.055-.19,1.135,1.135,0,0,1,.095-.16,1.21,1.21,0,0,1,.125-.155,1.04,1.04,0,0,1,1.415,0,1.17,1.17,0,0,1,.12.155.815.815,0,0,1,.095.17A.83.83,0,0,1,20.3,26.76Zm-1.69-14.085a4.35,4.35,0,0,0-3.3,3.655.755.755,0,0,0,1.5.18A2.84,2.84,0,0,1,19,14.12a3.46,3.46,0,0,1,3.65,1.09,3.23,3.23,0,0,1,.725,2.655,4.735,4.735,0,0,1-2.3,3c-2.08,1.26-2.5,2.69-2.5,3.665a.75.75,0,0,0,1.5,0c0-.86.605-1.66,1.8-2.385a6.235,6.235,0,0,0,3-4,4.78,4.78,0,0,0-1-3.855,4.91,4.91,0,0,0-5.27-1.615ZM32,20A12,12,0,1,1,20,8,12,12,0,0,1,32,20Zm-1.5,0A10.5,10.5,0,1,0,20,30.5,10.5,10.5,0,0,0,30.5,20Z" transform="translate(-8 -8)"/></svg>